<mxfile host="app.diagrams.net" modified="2020-10-19T16:08:27.984Z" agent="5.0 (Windows NT 10.0; Win64; x64) AppleWebKit/537.36 (KHTML, like Gecko) Chrome/86.0.4240.75 Safari/537.36" etag="yizf3IVmH8ho7bQH4JnH" version="13.8.0" type="github">
  <diagram id="C5RBs43oDa-KdzZeNtuy" name="Page-1">
    <mxGraphModel dx="350" dy="512" grid="1" gridSize="10" guides="1" tooltips="1" connect="1" arrows="1" fold="1" page="1" pageScale="1" pageWidth="827" pageHeight="1169" math="0" shadow="0">
      <root>
        <mxCell id="WIyWlLk6GJQsqaUBKTNV-0" />
        <mxCell id="WIyWlLk6GJQsqaUBKTNV-1" parent="WIyWlLk6GJQsqaUBKTNV-0" />
        <mxCell id="X2LnM3ZKx0AqH8brwHRl-0" value="Book" style="html=1;" vertex="1" parent="WIyWlLk6GJQsqaUBKTNV-1">
          <mxGeometry x="40" y="80" width="110" height="50" as="geometry" />
        </mxCell>
        <mxCell id="X2LnM3ZKx0AqH8brwHRl-1" value="Owner" style="html=1;" vertex="1" parent="WIyWlLk6GJQsqaUBKTNV-1">
          <mxGeometry x="40" y="10" width="110" height="50" as="geometry" />
        </mxCell>
        <mxCell id="X2LnM3ZKx0AqH8brwHRl-2" value="Author" style="html=1;" vertex="1" parent="WIyWlLk6GJQsqaUBKTNV-1">
          <mxGeometry x="240" y="80" width="110" height="50" as="geometry" />
        </mxCell>
        <mxCell id="X2LnM3ZKx0AqH8brwHRl-3" value="Publisher" style="html=1;" vertex="1" parent="WIyWlLk6GJQsqaUBKTNV-1">
          <mxGeometry x="40" y="230" width="110" height="50" as="geometry" />
        </mxCell>
        <mxCell id="X2LnM3ZKx0AqH8brwHRl-5" value="Library" style="html=1;" vertex="1" parent="WIyWlLk6GJQsqaUBKTNV-1">
          <mxGeometry x="240" y="230" width="120" height="50" as="geometry" />
        </mxCell>
        <mxCell id="X2LnM3ZKx0AqH8brwHRl-6" value="Mystery" style="html=1;" vertex="1" parent="WIyWlLk6GJQsqaUBKTNV-1">
          <mxGeometry x="330" y="360" width="110" height="50" as="geometry" />
        </mxCell>
        <mxCell id="X2LnM3ZKx0AqH8brwHRl-7" value="Fiction" style="html=1;" vertex="1" parent="WIyWlLk6GJQsqaUBKTNV-1">
          <mxGeometry x="160" y="360" width="110" height="50" as="geometry" />
        </mxCell>
        <mxCell id="X2LnM3ZKx0AqH8brwHRl-8" value="" style="endArrow=block;endSize=16;endFill=0;html=1;entryX=0.75;entryY=1;entryDx=0;entryDy=0;exitX=0.5;exitY=0;exitDx=0;exitDy=0;" edge="1" parent="WIyWlLk6GJQsqaUBKTNV-1" source="X2LnM3ZKx0AqH8brwHRl-6" target="X2LnM3ZKx0AqH8brwHRl-5">
          <mxGeometry width="160" relative="1" as="geometry">
            <mxPoint x="400" y="340" as="sourcePoint" />
            <mxPoint x="330" y="290" as="targetPoint" />
          </mxGeometry>
        </mxCell>
        <mxCell id="X2LnM3ZKx0AqH8brwHRl-9" value="" style="endArrow=block;endSize=16;endFill=0;html=1;entryX=0.25;entryY=1;entryDx=0;entryDy=0;exitX=0.5;exitY=0;exitDx=0;exitDy=0;" edge="1" parent="WIyWlLk6GJQsqaUBKTNV-1" source="X2LnM3ZKx0AqH8brwHRl-7" target="X2LnM3ZKx0AqH8brwHRl-5">
          <mxGeometry width="160" relative="1" as="geometry">
            <mxPoint x="200" y="330" as="sourcePoint" />
            <mxPoint x="282" y="280" as="targetPoint" />
          </mxGeometry>
        </mxCell>
        <mxCell id="X2LnM3ZKx0AqH8brwHRl-10" value="" style="endArrow=diamondThin;endFill=1;endSize=24;html=1;exitX=0.75;exitY=1;exitDx=0;exitDy=0;entryX=0.25;entryY=0;entryDx=0;entryDy=0;" edge="1" parent="WIyWlLk6GJQsqaUBKTNV-1" source="X2LnM3ZKx0AqH8brwHRl-0" target="X2LnM3ZKx0AqH8brwHRl-5">
          <mxGeometry width="160" relative="1" as="geometry">
            <mxPoint x="130" y="270" as="sourcePoint" />
            <mxPoint x="290" y="270" as="targetPoint" />
          </mxGeometry>
        </mxCell>
        <mxCell id="X2LnM3ZKx0AqH8brwHRl-11" value="has" style="edgeLabel;html=1;align=center;verticalAlign=middle;resizable=0;points=[];" vertex="1" connectable="0" parent="X2LnM3ZKx0AqH8brwHRl-10">
          <mxGeometry x="-0.1293" y="2" relative="1" as="geometry">
            <mxPoint as="offset" />
          </mxGeometry>
        </mxCell>
        <mxCell id="X2LnM3ZKx0AqH8brwHRl-12" value="0..*" style="text;html=1;align=center;verticalAlign=middle;resizable=0;points=[];autosize=1;" vertex="1" parent="WIyWlLk6GJQsqaUBKTNV-1">
          <mxGeometry x="100" y="130" width="30" height="20" as="geometry" />
        </mxCell>
      </root>
    </mxGraphModel>
  </diagram>
</mxfile>
